<svg width="13" height="18" viewBox="0 0 13 18" fill="none" xmlns="http://www.w3.org/2000/svg">
<path d="M3.6 17.1C3.6 17.595 4.005 18 4.5 18H8.1C8.595 18 9 17.595 9 17.1V16.2H3.6V17.1ZM6.3 0C2.826 0 0 2.826 0 6.3C0 8.442 1.071 10.323 2.7 11.466V13.5C2.7 13.995 3.105 14.4 3.6 14.4H9C9.495 14.4 9.9 13.995 9.9 13.5V11.466C11.529 10.323 12.6 8.442 12.6 6.3C12.6 2.826 9.774 0 6.3 0ZM8.865 9.99L8.1 10.53V12.6H4.5V10.53L3.735 9.99C2.52 9.144 1.8 7.767 1.8 6.3C1.8 3.816 3.816 1.8 6.3 1.8C8.784 1.8 10.8 3.816 10.8 6.3C10.8 7.767 10.08 9.144 8.865 9.99Z" fill="#303133"/>
</svg>
