<svg width="14" height="14" viewBox="0 0 14 14" fill="none" xmlns="http://www.w3.org/2000/svg">
<path d="M11.9651 2.93005H9.84884V2.36028C9.84884 1.59728 9.22812 0.976562 8.46512 0.976562H5.53488C4.77172 0.976562 4.15116 1.59728 4.15116 2.36028V2.93005H2.03488C0.912767 2.93005 0 3.84282 0 4.96493V10.9882C0 12.1103 0.912767 13.0231 2.03488 13.0231H11.9651C13.0872 13.0231 14 12.1103 14 10.9882V4.96493C14 3.84282 13.0872 2.93005 11.9651 2.93005ZM4.96512 2.36028C4.96512 2.0461 5.2207 1.79052 5.53488 1.79052H8.46512C8.7793 1.79052 9.03488 2.0461 9.03488 2.36028V2.93005H4.96512V2.36028ZM2.03488 3.744H11.9651C12.6384 3.744 13.186 4.29163 13.186 4.96493V6.75563H8.38372V6.18586C8.38372 5.96105 8.20156 5.77889 7.97674 5.77889H6.02326C5.79844 5.77889 5.61628 5.96105 5.61628 6.18586V6.75563H0.813953V4.96493C0.813953 4.29163 1.36158 3.744 2.03488 3.744ZM6.43023 6.59284H7.56977V7.73238H6.43023V6.59284ZM11.9651 12.2091H2.03488C1.36158 12.2091 0.813953 11.6615 0.813953 10.9882V7.56959H5.61628V8.13935C5.61628 8.36417 5.79844 8.54633 6.02326 8.54633H7.97674C8.20156 8.54633 8.38372 8.36417 8.38372 8.13935V7.56959H13.186V10.9882C13.186 11.6615 12.6384 12.2091 11.9651 12.2091Z" fill="#262631"/>
</svg>
