<svg width="10" height="11" viewBox="0 0 10 11" fill="none" xmlns="http://www.w3.org/2000/svg">
<path fill-rule="evenodd" clip-rule="evenodd" d="M8.3386 10.1089C8.69008 10.4604 9.25992 10.4604 9.6114 10.1089C9.96287 9.75746 9.96287 9.18761 9.6114 8.83614L6.275 5.49975L9.6114 2.16335C9.96287 1.81188 9.96287 1.24203 9.6114 0.890558C9.25992 0.539086 8.69008 0.539086 8.3386 0.890558L5.00221 4.22695L1.66581 0.890557C1.31434 0.539085 0.744491 0.539085 0.39302 0.890557C0.0415477 1.24203 0.0415477 1.81188 0.39302 2.16335L3.72942 5.49975L0.393019 8.83614C0.0415474 9.18761 0.0415474 9.75746 0.393019 10.1089C0.74449 10.4604 1.31434 10.4604 1.66581 10.1089L5.00221 6.77254L8.3386 10.1089Z" fill="white"/>
</svg>
