<svg width="10" height="10" viewBox="0 0 10 10" fill="none" xmlns="http://www.w3.org/2000/svg">
<path fill-rule="evenodd" clip-rule="evenodd" d="M8.3386 9.60893C8.69008 9.96041 9.25992 9.96041 9.6114 9.60893C9.96287 9.25746 9.96287 8.68761 9.6114 8.33614L6.275 4.99975L9.6114 1.66335C9.96287 1.31188 9.96287 0.742029 9.6114 0.390558C9.25992 0.0390857 8.69008 0.0390856 8.3386 0.390558L5.00221 3.72695L1.66581 0.390557C1.31434 0.0390848 0.744491 0.0390847 0.39302 0.390557C0.0415477 0.742029 0.0415477 1.31188 0.39302 1.66335L3.72942 4.99975L0.393019 8.33614C0.0415474 8.68761 0.0415474 9.25746 0.393019 9.60893C0.74449 9.96041 1.31434 9.96041 1.66581 9.60893L5.00221 6.27254L8.3386 9.60893Z" fill="#1D81CF"/>
</svg>
