<svg width="12" height="13" viewBox="0 0 12 13" fill="none" xmlns="http://www.w3.org/2000/svg">
<g id="Layer 34">
<path id="Vector" d="M11.5725 3.93652H3.88231C3.769 3.93652 3.66033 3.98154 3.58021 4.06166C3.50009 4.14178 3.45508 4.25045 3.45508 4.36376V12.0539C3.45508 12.1672 3.50009 12.2759 3.58021 12.356C3.66033 12.4362 3.769 12.4812 3.88231 12.4812H11.5725C11.6858 12.4812 11.7945 12.4362 11.8746 12.356C11.9547 12.2759 11.9997 12.1672 11.9997 12.0539V4.36376C11.9997 4.25045 11.9547 4.14178 11.8746 4.06166C11.7945 3.98154 11.6858 3.93652 11.5725 3.93652ZM11.1453 11.6267H4.30954V4.79099H11.1453V11.6267Z" fill="white"/>
<path id="Vector_2" d="M11.1472 2.65575C11.1472 2.54244 11.1021 2.43377 11.022 2.35365C10.9419 2.27353 10.8332 2.22852 10.7199 2.22852H2.17528C2.06197 2.22852 1.9533 2.27353 1.87318 2.35365C1.79306 2.43377 1.74805 2.54244 1.74805 2.65575V9.49146C1.74805 9.60477 1.79306 9.71344 1.87318 9.79356C1.9533 9.87369 2.06197 9.9187 2.17528 9.9187C2.28859 9.9187 2.39726 9.87369 2.47738 9.79356C2.5575 9.71344 2.60251 9.60477 2.60251 9.49146V3.08298H10.7199C10.8332 3.08298 10.9419 3.03797 11.022 2.95785C11.1021 2.87773 11.1472 2.76906 11.1472 2.65575Z" fill="white"/>
<path id="Vector_3" d="M9.39911 0.945787C9.39911 0.832478 9.3541 0.72381 9.27398 0.643688C9.19386 0.563567 9.08519 0.518555 8.97188 0.518555H0.427232C0.313923 0.518555 0.205255 0.563567 0.125133 0.643688C0.0450119 0.72381 0 0.832478 0 0.945787V7.7815C0 7.89481 0.0450119 8.00348 0.125133 8.0836C0.205255 8.16372 0.313923 8.20874 0.427232 8.20874C0.540541 8.20874 0.649209 8.16372 0.729331 8.0836C0.809453 8.00348 0.854465 7.89481 0.854465 7.7815V1.37302H8.97188C9.08519 1.37302 9.19386 1.32801 9.27398 1.24789C9.3541 1.16776 9.39911 1.0591 9.39911 0.945787Z" fill="white"/>
</g>
</svg>
