<svg width="40" height="11" viewBox="0 0 40 11" fill="none" xmlns="http://www.w3.org/2000/svg">
<path d="M18.3544 1.90124C18.3544 2.862 19.1332 3.64085 20.094 3.64085C21.0548 3.64085 21.8336 2.862 21.8336 1.90124C21.8336 0.940474 21.0548 0.161621 20.094 0.161621C19.1332 0.161621 18.3544 0.940474 18.3544 1.90124Z" fill="white"/>
<path d="M20.094 3.47352C19.4439 3.46851 18.8373 3.05909 18.6167 2.44078C18.3928 1.81412 18.5866 1.11393 19.0963 0.686125C19.6027 0.261665 20.353 0.216545 20.9128 0.559121C21.4659 0.895013 21.7667 1.56512 21.6381 2.20181C21.4893 2.93543 20.8409 3.46851 20.094 3.47352C19.8784 3.47519 19.8784 3.80941 20.094 3.80774C20.8927 3.80273 21.608 3.29973 21.887 2.55107C22.1611 1.81078 21.9238 0.93679 21.3122 0.437131C20.6905 -0.0708842 19.7982 -0.149426 19.1063 0.271692C18.4195 0.689467 18.0703 1.50664 18.2273 2.29205C18.4045 3.16938 19.2066 3.80273 20.094 3.80941C20.3095 3.80941 20.3095 3.47519 20.094 3.47352Z" fill="white"/>
<path d="M12.3545 1.90124C12.3545 2.862 13.1334 3.64085 14.0941 3.64085C15.0549 3.64085 15.8337 2.862 15.8337 1.90124C15.8337 0.940474 15.0549 0.161621 14.0941 0.161621C13.1334 0.161621 12.3545 0.940474 12.3545 1.90124Z" fill="white"/>
<path d="M14.094 3.47352C13.4439 3.46851 12.8373 3.05909 12.6167 2.44078C12.3928 1.81412 12.5866 1.11393 13.0963 0.686125C13.6027 0.261665 14.353 0.216545 14.9128 0.559121C15.4659 0.895013 15.7667 1.56512 15.6381 2.20181C15.4893 2.93543 14.8409 3.46851 14.094 3.47352C13.8784 3.47519 13.8784 3.80941 14.094 3.80774C14.8927 3.80273 15.608 3.29973 15.887 2.55107C16.1611 1.81078 15.9238 0.93679 15.3122 0.437131C14.6905 -0.0708842 13.7982 -0.149426 13.1063 0.271692C12.4195 0.689467 12.0703 1.50664 12.2273 2.29205C12.4045 3.16938 13.2066 3.80273 14.094 3.80941C14.3095 3.80941 14.3095 3.47519 14.094 3.47352Z" fill="white"/>
<path d="M6.35451 1.90124C6.35451 2.862 7.13336 3.64085 8.09412 3.64085C9.05489 3.64085 9.83374 2.862 9.83374 1.90124C9.83374 0.940474 9.05489 0.161621 8.09412 0.161621C7.13336 0.161621 6.35451 0.940474 6.35451 1.90124Z" fill="white"/>
<path d="M8.09396 3.47352C7.4439 3.46851 6.83729 3.05909 6.6167 2.44078C6.39277 1.81412 6.58662 1.11393 7.09631 0.686125C7.60265 0.261665 8.35298 0.216545 8.9128 0.559121C9.46593 0.895013 9.76673 1.56512 9.63805 2.20181C9.48933 2.93543 8.84094 3.46851 8.09396 3.47352C7.87838 3.47519 7.87838 3.80941 8.09396 3.80774C8.89274 3.80273 9.60797 3.29973 9.88705 2.55107C10.1611 1.81078 9.92381 0.93679 9.31219 0.437131C8.69054 -0.0708842 7.79817 -0.149426 7.10634 0.271692C6.41951 0.689467 6.07025 1.50664 6.22734 2.29205C6.40447 3.16938 7.2066 3.80273 8.09396 3.80941C8.30953 3.80941 8.30953 3.47519 8.09396 3.47352Z" fill="white"/>
<path d="M18.3544 8.33483C18.3544 9.29559 19.1332 10.0744 20.094 10.0744C21.0548 10.0744 21.8336 9.29559 21.8336 8.33483C21.8336 7.37407 21.0548 6.59521 20.094 6.59521C19.1332 6.59521 18.3544 7.37407 18.3544 8.33483Z" fill="white"/>
<path d="M20.094 9.90711C19.4439 9.9021 18.8373 9.49268 18.6167 8.87437C18.3928 8.24771 18.5866 7.54752 19.0963 7.11972C19.6027 6.69526 20.353 6.65014 20.9128 6.99271C21.4659 7.32861 21.7667 7.99872 21.6381 8.63541C21.4893 9.36902 20.8409 9.9021 20.094 9.90711C19.8784 9.90879 19.8784 10.243 20.094 10.2413C20.8927 10.2363 21.608 9.73332 21.887 8.98467C22.1611 8.24437 21.9238 7.37038 21.3122 6.87072C20.6905 6.36271 19.7982 6.28417 19.1063 6.70529C18.4195 7.12306 18.0703 7.94023 18.2273 8.72565C18.4045 9.60298 19.2066 10.2363 20.094 10.243C20.3095 10.243 20.3095 9.90879 20.094 9.90711Z" fill="white"/>
<path d="M12.3545 8.33483C12.3545 9.29559 13.1334 10.0744 14.0941 10.0744C15.0549 10.0744 15.8337 9.29559 15.8337 8.33483C15.8337 7.37407 15.0549 6.59521 14.0941 6.59521C13.1334 6.59521 12.3545 7.37407 12.3545 8.33483Z" fill="white"/>
<path d="M14.094 9.90711C13.4439 9.9021 12.8373 9.49268 12.6167 8.87437C12.3928 8.24771 12.5866 7.54752 13.0963 7.11972C13.6027 6.69526 14.353 6.65014 14.9128 6.99271C15.4659 7.32861 15.7667 7.99872 15.6381 8.63541C15.4893 9.36902 14.8409 9.9021 14.094 9.90711C13.8784 9.90879 13.8784 10.243 14.094 10.2413C14.8927 10.2363 15.608 9.73332 15.887 8.98467C16.1611 8.24437 15.9238 7.37038 15.3122 6.87072C14.6905 6.36271 13.7982 6.28417 13.1063 6.70529C12.4195 7.12306 12.0703 7.94023 12.2273 8.72565C12.4045 9.60298 13.2066 10.2363 14.094 10.243C14.3095 10.243 14.3095 9.90879 14.094 9.90711Z" fill="white"/>
<path d="M6.35451 8.33483C6.35451 9.29559 7.13336 10.0744 8.09412 10.0744C9.05489 10.0744 9.83374 9.29559 9.83374 8.33483C9.83374 7.37407 9.05489 6.59521 8.09412 6.59521C7.13336 6.59521 6.35451 7.37407 6.35451 8.33483Z" fill="white"/>
<path d="M8.09396 9.90711C7.4439 9.9021 6.83729 9.49268 6.6167 8.87437C6.39277 8.24771 6.58662 7.54752 7.09631 7.11972C7.60265 6.69526 8.35298 6.65014 8.9128 6.99271C9.46593 7.32861 9.76673 7.99872 9.63805 8.63541C9.48933 9.36902 8.84094 9.9021 8.09396 9.90711C7.87838 9.90879 7.87838 10.243 8.09396 10.2413C8.89274 10.2363 9.60797 9.73332 9.88705 8.98467C10.1611 8.24437 9.92381 7.37038 9.31219 6.87072C8.69054 6.36271 7.79817 6.28417 7.10634 6.70529C6.41951 7.12306 6.07025 7.94023 6.22734 8.72565C6.40447 9.60298 7.2066 10.2363 8.09396 10.243C8.30953 10.243 8.30953 9.90879 8.09396 9.90711Z" fill="white"/>
<path d="M0.164322 1.90124C0.164322 2.862 0.943174 3.64085 1.90394 3.64085C2.8647 3.64085 3.64355 2.862 3.64355 1.90124C3.64355 0.940474 2.8647 0.161621 1.90394 0.161621C0.943175 0.161621 0.164322 0.940474 0.164322 1.90124Z" fill="white"/>
<path d="M1.90377 3.47352C1.25371 3.46851 0.647102 3.05909 0.426517 2.44078C0.202589 1.81412 0.396437 1.11393 0.906123 0.686125C1.41247 0.261665 2.16279 0.216545 2.72261 0.559121C3.27575 0.895013 3.57654 1.56512 3.44787 2.20181C3.29914 2.93543 2.65075 3.46851 1.90377 3.47352C1.6882 3.47519 1.6882 3.80941 1.90377 3.80774C2.70256 3.80273 3.41779 3.29973 3.69686 2.55107C3.97092 1.81078 3.73363 0.93679 3.122 0.437131C2.50035 -0.0708842 1.60799 -0.149426 0.916151 0.271692C0.229328 0.689467 -0.119933 1.50664 0.0371505 2.29205C0.214287 3.16938 1.01642 3.80273 1.90377 3.80941C2.11934 3.80941 2.11934 3.47519 1.90377 3.47352Z" fill="white"/>
<path d="M0.164322 8.33483C0.164322 9.29559 0.943174 10.0744 1.90394 10.0744C2.8647 10.0744 3.64355 9.29559 3.64355 8.33483C3.64355 7.37407 2.8647 6.59521 1.90394 6.59521C0.943175 6.59521 0.164322 7.37407 0.164322 8.33483Z" fill="white"/>
<path d="M1.90377 9.90711C1.25371 9.9021 0.647102 9.49268 0.426517 8.87437C0.202589 8.24771 0.396437 7.54752 0.906123 7.11972C1.41247 6.69526 2.16279 6.65014 2.72261 6.99271C3.27575 7.32861 3.57654 7.99872 3.44787 8.63541C3.29914 9.36902 2.65075 9.9021 1.90377 9.90711C1.6882 9.90879 1.6882 10.243 1.90377 10.2413C2.70256 10.2363 3.41779 9.73332 3.69686 8.98467C3.97092 8.24437 3.73363 7.37038 3.122 6.87072C2.50035 6.36271 1.60799 6.28417 0.916151 6.70529C0.229328 7.12306 -0.119933 7.94023 0.0371505 8.72565C0.214287 9.60298 1.01642 10.2363 1.90377 10.243C2.11934 10.243 2.11934 9.90879 1.90377 9.90711Z" fill="white"/>
<path d="M36.3544 1.90124C36.3544 2.862 37.1332 3.64085 38.094 3.64085C39.0548 3.64085 39.8336 2.862 39.8336 1.90124C39.8336 0.940474 39.0548 0.161621 38.094 0.161621C37.1332 0.161621 36.3544 0.940474 36.3544 1.90124Z" fill="white"/>
<path d="M38.094 3.47352C37.4439 3.46851 36.8373 3.05909 36.6167 2.44078C36.3928 1.81412 36.5866 1.11393 37.0963 0.686125C37.6027 0.261665 38.353 0.216545 38.9128 0.559121C39.4659 0.895013 39.7667 1.56512 39.6381 2.20181C39.4893 2.93543 38.8409 3.46851 38.094 3.47352C37.8784 3.47519 37.8784 3.80941 38.094 3.80774C38.8927 3.80273 39.608 3.29973 39.887 2.55107C40.1611 1.81078 39.9238 0.93679 39.3122 0.437131C38.6905 -0.0708842 37.7982 -0.149426 37.1063 0.271692C36.4195 0.689467 36.0703 1.50664 36.2273 2.29205C36.4045 3.16938 37.2066 3.80273 38.094 3.80941C38.3095 3.80941 38.3095 3.47519 38.094 3.47352Z" fill="white"/>
<path d="M30.3544 1.90124C30.3544 2.862 31.1332 3.64085 32.094 3.64085C33.0548 3.64085 33.8336 2.862 33.8336 1.90124C33.8336 0.940474 33.0548 0.161621 32.094 0.161621C31.1332 0.161621 30.3544 0.940474 30.3544 1.90124Z" fill="white"/>
<path d="M32.094 3.47352C31.4439 3.46851 30.8373 3.05909 30.6167 2.44078C30.3928 1.81412 30.5866 1.11393 31.0963 0.686125C31.6027 0.261665 32.353 0.216545 32.9128 0.559121C33.4659 0.895013 33.7667 1.56512 33.6381 2.20181C33.4893 2.93543 32.8409 3.46851 32.094 3.47352C31.8784 3.47519 31.8784 3.80941 32.094 3.80774C32.8927 3.80273 33.608 3.29973 33.887 2.55107C34.1611 1.81078 33.9238 0.93679 33.3122 0.437131C32.6905 -0.0708842 31.7982 -0.149426 31.1063 0.271692C30.4195 0.689467 30.0703 1.50664 30.2273 2.29205C30.4045 3.16938 31.2066 3.80273 32.094 3.80941C32.3095 3.80941 32.3095 3.47519 32.094 3.47352Z" fill="white"/>
<path d="M24.3544 1.90124C24.3544 2.862 25.1332 3.64085 26.094 3.64085C27.0548 3.64085 27.8336 2.862 27.8336 1.90124C27.8336 0.940474 27.0548 0.161621 26.094 0.161621C25.1332 0.161621 24.3544 0.940474 24.3544 1.90124Z" fill="white"/>
<path d="M26.094 3.47352C25.4439 3.46851 24.8373 3.05909 24.6167 2.44078C24.3928 1.81412 24.5866 1.11393 25.0963 0.686125C25.6027 0.261665 26.353 0.216545 26.9128 0.559121C27.4659 0.895013 27.7667 1.56512 27.6381 2.20181C27.4893 2.93543 26.8409 3.46851 26.094 3.47352C25.8784 3.47519 25.8784 3.80941 26.094 3.80774C26.8927 3.80273 27.608 3.29973 27.887 2.55107C28.1611 1.81078 27.9238 0.93679 27.3122 0.437131C26.6905 -0.0708842 25.7982 -0.149426 25.1063 0.271692C24.4195 0.689467 24.0703 1.50664 24.2273 2.29205C24.4045 3.16938 25.2066 3.80273 26.094 3.80941C26.3095 3.80941 26.3095 3.47519 26.094 3.47352Z" fill="white"/>
<path d="M36.3544 8.33483C36.3544 9.29559 37.1332 10.0744 38.094 10.0744C39.0548 10.0744 39.8336 9.29559 39.8336 8.33483C39.8336 7.37407 39.0548 6.59521 38.094 6.59521C37.1332 6.59521 36.3544 7.37407 36.3544 8.33483Z" fill="white"/>
<path d="M38.094 9.90711C37.4439 9.9021 36.8373 9.49268 36.6167 8.87437C36.3928 8.24771 36.5866 7.54752 37.0963 7.11972C37.6027 6.69526 38.353 6.65014 38.9128 6.99271C39.4659 7.32861 39.7667 7.99872 39.6381 8.63541C39.4893 9.36902 38.8409 9.9021 38.094 9.90711C37.8784 9.90879 37.8784 10.243 38.094 10.2413C38.8927 10.2363 39.608 9.73332 39.887 8.98467C40.1611 8.24437 39.9238 7.37038 39.3122 6.87072C38.6905 6.36271 37.7982 6.28417 37.1063 6.70529C36.4195 7.12306 36.0703 7.94023 36.2273 8.72565C36.4045 9.60298 37.2066 10.2363 38.094 10.243C38.3095 10.243 38.3095 9.90879 38.094 9.90711Z" fill="white"/>
<path d="M30.3544 8.33483C30.3544 9.29559 31.1332 10.0744 32.094 10.0744C33.0548 10.0744 33.8336 9.29559 33.8336 8.33483C33.8336 7.37407 33.0548 6.59521 32.094 6.59521C31.1332 6.59521 30.3544 7.37407 30.3544 8.33483Z" fill="white"/>
<path d="M32.094 9.90711C31.4439 9.9021 30.8373 9.49268 30.6167 8.87437C30.3928 8.24771 30.5866 7.54752 31.0963 7.11972C31.6027 6.69526 32.353 6.65014 32.9128 6.99271C33.4659 7.32861 33.7667 7.99872 33.6381 8.63541C33.4893 9.36902 32.8409 9.9021 32.094 9.90711C31.8784 9.90879 31.8784 10.243 32.094 10.2413C32.8927 10.2363 33.608 9.73332 33.887 8.98467C34.1611 8.24437 33.9238 7.37038 33.3122 6.87072C32.6905 6.36271 31.7982 6.28417 31.1063 6.70529C30.4195 7.12306 30.0703 7.94023 30.2273 8.72565C30.4045 9.60298 31.2066 10.2363 32.094 10.243C32.3095 10.243 32.3095 9.90879 32.094 9.90711Z" fill="white"/>
<path d="M24.3544 8.33483C24.3544 9.29559 25.1332 10.0744 26.094 10.0744C27.0548 10.0744 27.8336 9.29559 27.8336 8.33483C27.8336 7.37407 27.0548 6.59521 26.094 6.59521C25.1332 6.59521 24.3544 7.37407 24.3544 8.33483Z" fill="white"/>
<path d="M26.094 9.90711C25.4439 9.9021 24.8373 9.49268 24.6167 8.87437C24.3928 8.24771 24.5866 7.54752 25.0963 7.11972C25.6027 6.69526 26.353 6.65014 26.9128 6.99271C27.4659 7.32861 27.7667 7.99872 27.6381 8.63541C27.4893 9.36902 26.8409 9.9021 26.094 9.90711C25.8784 9.90879 25.8784 10.243 26.094 10.2413C26.8927 10.2363 27.608 9.73332 27.887 8.98467C28.1611 8.24437 27.9238 7.37038 27.3122 6.87072C26.6905 6.36271 25.7982 6.28417 25.1063 6.70529C24.4195 7.12306 24.0703 7.94023 24.2273 8.72565C24.4045 9.60298 25.2066 10.2363 26.094 10.243C26.3095 10.243 26.3095 9.90879 26.094 9.90711Z" fill="white"/>
</svg>
