<svg width="17" height="19" viewBox="0 0 17 19" fill="none" xmlns="http://www.w3.org/2000/svg">
<path fill-rule="evenodd" clip-rule="evenodd" d="M13.995 1.20257C14.2726 0.932636 14.7241 0.932452 15.0037 1.20216L16.2383 2.39333C16.5179 2.66315 16.5195 3.10089 16.2418 3.37094L10.4493 9.00344C10.3503 9.09976 10.224 9.1655 10.0863 9.1924L7.49237 9.6991L8.00834 7.18735C8.03571 7.05413 8.10304 6.9318 8.2019 6.83566L13.995 1.20257Z" stroke="#303133" stroke-linejoin="round"/>
<path d="M1.91107 11.6957L0.959894 11.6957L0.977393 17.2251C0.979003 17.7341 1.40616 18.1467 1.93148 18.1467L11.4432 18.1467C11.9685 18.1467 12.3931 17.7341 12.3915 17.2251L12.374 11.6957L11.4228 11.6957M1.91107 11.6957L6.67568 14.4604L11.4228 11.6957M1.91107 11.6957L1.90232 8.93105C1.8991 7.91311 2.74819 7.08792 3.79883 7.08792L7.48462 7.08792M11.4228 11.6957L11.414 8.93105" stroke="#303133" stroke-linecap="round" stroke-linejoin="round"/>
</svg>
