<svg width="16" height="14" viewBox="0 0 16 14" fill="none" xmlns="http://www.w3.org/2000/svg">
<g id="Vector">
<path d="M10.6854 11.866C10.1148 12.23 9.42498 12.481 8.73201 12.6161C7.55301 12.8108 6.34256 12.7046 5.26056 12.2C2.60102 10.9026 1.35203 7.68562 2.48323 4.89129L2.75941 5.65007C2.85983 5.92599 3.18914 6.07955 3.46506 5.97912C3.74098 5.8787 3.89453 5.54939 3.79411 5.27347L3.09112 3.34202C3.06285 3.15702 2.94365 3.04417 2.80252 2.97836C2.66139 2.91255 2.49833 2.89378 2.36036 2.94399L0.359938 3.67208C0.0840173 3.77251 -0.0695403 4.10181 0.0308862 4.37774C0.131313 4.65366 0.460617 4.80721 0.736538 4.70679L1.5643 4.40551C0.169855 7.76436 1.64481 11.6021 4.8908 13.1158C6.16098 13.7081 7.5596 13.9021 8.94554 13.632C9.75454 13.4938 10.5353 13.1706 11.1968 12.7345C11.4476 12.5651 11.5102 12.3079 11.3408 12.0571C11.2185 11.8283 10.9613 11.7656 10.6854 11.866Z" fill="url(#paint0_linear_14449_1689)"/>
<path d="M10.5944 0.884311C9.32419 0.292018 7.92557 0.0980081 6.53962 0.368093C5.73063 0.506305 4.94991 0.829521 4.28838 1.26559C4.03757 1.435 3.97493 1.69215 4.1224 1.99001C4.24476 2.21889 4.54896 2.30346 4.79977 2.13406C5.37038 1.77014 6.06018 1.51907 6.70611 1.36209C7.88512 1.16733 9.09557 1.27359 10.1776 1.77814C12.9531 3.07241 14.2021 6.28937 13.049 9.13074L12.7728 8.37196C12.6724 8.09604 12.3431 7.94248 12.0672 8.04291C11.7912 8.14334 11.6377 8.47264 11.7381 8.74856L12.3721 10.7051C12.5196 11.003 12.8489 11.1565 13.1718 11.078L15.1033 10.3751C15.3792 10.2746 15.5328 9.94532 15.4323 9.6694C15.3319 9.39348 15.0026 9.23992 14.7267 9.34035L13.8989 9.64163C15.3153 6.23574 13.8184 2.44499 10.5944 0.884311Z" fill="url(#paint1_linear_14449_1689)"/>
<path d="M8.4033 6.48345H10.0973L10.103 6.48346C10.2574 6.4851 10.3518 6.65367 10.2725 6.78617L10.2696 6.79103L7.67279 11.0267L7.66771 11.035C7.56144 11.2034 7.30117 11.13 7.29859 10.9308L7.29857 10.9212V8.23156L7.29857 8.22799C7.29771 8.11876 7.20937 8.03042 7.10015 8.02956L7.09658 8.02956H5.38559L5.38011 8.02955C5.22933 8.02798 5.13445 7.86648 5.20649 7.73401L5.20915 7.72922L7.82286 3.03953L7.8279 3.03052C7.92927 2.85413 8.19861 2.92412 8.20129 3.12754L8.2013 3.13787V6.28145L8.20131 6.28502C8.20217 6.39425 8.2905 6.48259 8.39973 6.48344L8.4033 6.48345Z" fill="url(#paint2_linear_14449_1689)"/>
</g>
<defs>
<linearGradient id="paint0_linear_14449_1689" x1="-0.19329" y1="13.7263" x2="17.9716" y2="6.39421" gradientUnits="userSpaceOnUse">
<stop stop-color="#4592CF"/>
<stop offset="0.401042" stop-color="#54AFE1"/>
<stop offset="0.692708" stop-color="#4593CF"/>
<stop offset="1" stop-color="#4FC8EF"/>
<stop offset="1" stop-color="#29A6FF"/>
</linearGradient>
<linearGradient id="paint1_linear_14449_1689" x1="-0.19329" y1="13.7263" x2="17.9716" y2="6.39421" gradientUnits="userSpaceOnUse">
<stop stop-color="#4592CF"/>
<stop offset="0.401042" stop-color="#54AFE1"/>
<stop offset="0.692708" stop-color="#4593CF"/>
<stop offset="1" stop-color="#4FC8EF"/>
<stop offset="1" stop-color="#29A6FF"/>
</linearGradient>
<linearGradient id="paint2_linear_14449_1689" x1="-0.19329" y1="13.7263" x2="17.9716" y2="6.39421" gradientUnits="userSpaceOnUse">
<stop stop-color="#4592CF"/>
<stop offset="0.401042" stop-color="#54AFE1"/>
<stop offset="0.692708" stop-color="#4593CF"/>
<stop offset="1" stop-color="#4FC8EF"/>
<stop offset="1" stop-color="#29A6FF"/>
</linearGradient>
</defs>
</svg>
