<svg width="18" height="16" viewBox="0 0 18 16" fill="none" xmlns="http://www.w3.org/2000/svg">
<path d="M0.646447 7.64645C0.451184 7.84171 0.451184 8.15829 0.646447 8.35355L3.82843 11.5355C4.02369 11.7308 4.34027 11.7308 4.53553 11.5355C4.7308 11.3403 4.7308 11.0237 4.53553 10.8284L1.70711 8L4.53553 5.17157C4.7308 4.97631 4.7308 4.65973 4.53553 4.46447C4.34027 4.2692 4.02369 4.2692 3.82843 4.46447L0.646447 7.64645ZM17.3536 8.35355C17.5488 8.15829 17.5488 7.84171 17.3536 7.64645L14.1716 4.46447C13.9763 4.26921 13.6597 4.26921 13.4645 4.46447C13.2692 4.65973 13.2692 4.97631 13.4645 5.17157L16.2929 8L13.4645 10.8284C13.2692 11.0237 13.2692 11.3403 13.4645 11.5355C13.6597 11.7308 13.9763 11.7308 14.1716 11.5355L17.3536 8.35355ZM1 8.5L17 8.5L17 7.5L1 7.5L1 8.5Z" fill="#262631"/>
</svg>
