<svg width="14" height="10" viewBox="0 0 14 10" fill="none" xmlns="http://www.w3.org/2000/svg">
<path d="M12.5448 0.562927H1.45523C0.652753 0.562927 0 1.21568 0 2.01816V8.25028C0 9.05276 0.652753 9.70552 1.45523 9.70552H12.5448C13.3472 9.70552 14 9.05276 14 8.25028V2.01816C14 1.21568 13.3472 0.562927 12.5448 0.562927ZM9.57382 4.8211L13.3083 1.76333C13.3351 1.84386 13.3532 1.92842 13.3532 2.018V8.25012C13.3532 8.32838 13.3385 8.40243 13.3177 8.47423L9.57382 4.8211ZM12.5448 1.2097C12.6626 1.2097 12.774 1.23638 12.8753 1.28197L7 6.09266L1.12473 1.28197C1.22595 1.23638 1.3372 1.2097 1.45523 1.2097H12.5448ZM0.682343 8.47423C0.661485 8.4026 0.646771 8.32854 0.646771 8.25012V2.01816C0.646771 1.92858 0.66488 1.84402 0.691721 1.7635L4.42618 4.82127L0.682343 8.47423ZM1.45523 9.05858C1.32653 9.05858 1.20655 9.0256 1.09838 8.97192L4.92985 5.23342L7 6.92861L9.07015 5.23358L12.9016 8.97208C12.7934 9.02576 12.6735 9.05875 12.5448 9.05875L1.45523 9.05858Z" fill="black"/>
</svg>
