<svg xmlns="http://www.w3.org/2000/svg" width="13" height="13"><path style="stroke:none;fill-rule:nonzero;fill:#303133;fill-opacity:1" d="M1.723.027a2.032 2.032 0 0 0-1.63 1.414l-.003.016C0 1.77-.004 1.812.004 6.641c.008 4.3.012 4.644.047 4.785.203.812.828 1.402 1.636 1.539.165.027.649.031 3.579.027l3.39-.004.125-.05c.149-.06.403-.223.621-.403.215-.168 2.97-2.922 3.137-3.133.18-.222.34-.476.402-.625l.047-.125.008-3.39c.004-2.926 0-3.414-.027-3.578a2.036 2.036 0 0 0-1.54-1.637c-.14-.035-.484-.035-4.843-.04-3.688-.003-4.727 0-4.863.02zM11.32 1.06c.196.07.387.214.504.386.184.27.168-.062.176 3.739.004 2.324-.004 3.402-.02 3.46-.03.126-.132.227-.277.286-.121.047-.14.047-1.215.058-.992.012-1.101.016-1.183.051a.51.51 0 0 0-.254.25v.004c-.047.094-.047.133-.059 1.203-.012 1.082-.012 1.106-.058 1.227-.055.129-.106.187-.22.242-.062.035-.359.035-3.487.031-3.848-.008-3.508.008-3.782-.176a1.096 1.096 0 0 1-.383-.496v-.004l-.054-.152L1 6.618c-.004-3.048.004-4.61.02-4.723.054-.446.406-.813.832-.875.074-.012 2.199-.02 4.726-.016h4.59zM3.234 4.062c-.171.086-.25.211-.261.41-.008.126 0 .173.035.243.058.113.199.234.3.265.06.02.977.024 3.215.02l3.133-.008.106-.066a.543.543 0 0 0 .172-.168v-.004c.058-.09.066-.125.066-.246-.004-.223-.094-.367-.293-.457-.098-.043-.125-.043-3.23-.043H3.344zm.07 2.458a.628.628 0 0 0-.292.261.569.569 0 0 0 .004.446.47.47 0 0 0 .277.242c.117.035 5.258.035 5.375 0 .344-.102.45-.559.191-.817-.164-.164.008-.156-2.898-.152-1.43 0-2.621.012-2.656.02zm0 0"/></svg>
