<svg width="14" height="18" viewBox="0 0 14 18" fill="none" xmlns="http://www.w3.org/2000/svg">
<path d="M2.14749 0.865723H11.8525C12.4437 0.865723 12.9805 1.10727 13.3695 1.49622C13.7585 1.88518 14 2.42205 14 3.01321V12.8572C14 14.0335 13.5189 15.1028 12.744 15.8782C11.9691 16.6531 10.8998 17.1342 9.72345 17.1342H2.14749C1.55683 17.1342 1.01946 16.8927 0.630501 16.5037C0.241542 16.1148 0 15.5779 0 14.9867V3.01371C0 2.42255 0.241542 1.88568 0.630501 1.49672C1.01946 1.10776 1.55683 0.866221 2.14749 0.866221V0.865723ZM5.41454 7.21057C5.41454 7.42124 5.24371 7.59206 5.03305 7.59206C4.82288 7.59206 4.65206 7.42124 4.65206 7.21057C4.65206 6.50487 4.93792 5.8659 5.40059 5.40373C5.86276 4.94157 6.50173 4.6552 7.20743 4.6552C7.91313 4.6552 8.5521 4.94107 9.01427 5.40373C9.47693 5.8664 9.7628 6.50487 9.7628 7.21057C9.7628 7.91627 9.47693 8.55524 9.01427 9.01741C8.63676 9.39491 8.14172 9.65488 7.58842 9.73755V10.7874C7.58842 10.9981 7.4176 11.1689 7.20693 11.1689C6.99627 11.1689 6.82594 10.9981 6.82594 10.7874V9.38445C6.82594 9.17379 6.99676 9.00346 7.20693 9.00346C7.70197 9.00346 8.15019 8.80276 8.4749 8.47854C8.79912 8.15383 8.99982 7.70561 8.99982 7.21057C8.99982 6.71553 8.79912 6.26731 8.4749 5.9426C8.15019 5.61838 7.70197 5.41768 7.20693 5.41768C6.71189 5.41768 6.26367 5.61838 5.93896 5.9426C5.61474 6.26731 5.41404 6.71553 5.41404 7.21057H5.41454ZM6.82644 12.3467C6.82644 12.136 6.99726 11.9657 7.20743 11.9657C7.41809 11.9657 7.58892 12.1365 7.58892 12.3467V12.5798C7.58892 12.7905 7.41809 12.9613 7.20743 12.9613C6.99676 12.9613 6.82644 12.7905 6.82644 12.5798V12.3467ZM11.853 1.6287H2.14798C1.76749 1.6287 1.42137 1.78458 1.17036 2.03559C0.919355 2.28659 0.762975 2.63322 0.762975 3.01371V14.9867C0.762975 15.3672 0.918857 15.7134 1.17036 15.9649C1.42137 16.2159 1.76799 16.3718 2.14798 16.3718H9.72395C10.6896 16.3718 11.5686 15.9763 12.2056 15.3393C12.8431 14.7024 13.2385 13.8239 13.2385 12.8577V3.01371C13.2385 2.63322 13.0826 2.28709 12.8311 2.03559C12.5801 1.78458 12.2335 1.6287 11.8535 1.6287H11.853Z" fill="black"/>
</svg>
