<svg width="12" height="16" viewBox="0 0 12 16" fill="none" xmlns="http://www.w3.org/2000/svg">
<g clip-path="url(#clip0_12853_861)">
<path d="M3.10116 11.7361C2.60677 11.4215 2.15733 10.972 1.79777 10.4776C1.2135 9.62371 0.853943 8.63493 0.853943 7.60121C0.898887 5.03938 2.96633 2.88205 5.5731 2.74722L5.07871 3.24161C4.89894 3.42138 4.89894 3.73599 5.07871 3.91577C5.25849 4.09555 5.5731 4.09555 5.75288 3.91577L7.01132 2.65733C7.14615 2.56744 7.1911 2.43261 7.1911 2.29777C7.1911 2.16294 7.14615 2.02811 7.05626 1.93822L5.75288 0.634833C5.5731 0.455056 5.25849 0.455056 5.07871 0.634833C4.89894 0.814611 4.89894 1.12922 5.07871 1.309L5.61805 1.84833C2.47194 1.98316 0 4.54499 0 7.64615C0 8.85965 0.359555 10.0282 1.07866 11.017C1.48316 11.6013 2.0225 12.0956 2.60677 12.4552C2.8315 12.59 3.05622 12.5451 3.19105 12.3204C3.32588 12.1406 3.28094 11.9159 3.10116 11.7361Z" fill="#262631"/>
<path d="M11.6852 7.64612C11.6852 6.43262 11.3257 5.26407 10.6066 4.27529C10.2021 3.69102 9.66274 3.19663 9.07847 2.83707C8.85374 2.70224 8.62902 2.74719 8.44924 2.97191C8.31441 3.15168 8.35936 3.42135 8.58408 3.55618C9.07847 3.87079 9.52791 4.32024 9.88746 4.76968C10.4717 5.62362 10.8313 6.6124 10.8313 7.64612C10.8313 10.2978 8.76386 12.4552 6.11214 12.59L6.60653 12.0956C6.7863 11.9158 6.7863 11.6012 6.60653 11.4214C6.42675 11.2417 6.11214 11.2417 5.93236 11.4214L4.62897 12.6349C4.4492 12.8597 4.4492 13.1743 4.62897 13.399L5.88742 14.6574C6.06719 14.8372 6.3818 14.8372 6.56158 14.6574C6.74136 14.4777 6.74136 14.1631 6.56158 13.9833L6.02225 13.4439C9.2133 13.3091 11.6403 10.7473 11.6852 7.64612Z" fill="#262631"/>
</g>
<defs>
<clipPath id="clip0_12853_861">
<rect width="12" height="15" fill="white" transform="translate(0 0.5)"/>
</clipPath>
</defs>
</svg>
