<svg width="17" height="18" viewBox="0 0 17 18" fill="none" xmlns="http://www.w3.org/2000/svg">
<path fill-rule="evenodd" clip-rule="evenodd" d="M9.3555 4.24523C9.65135 4.65069 10.2199 4.73954 10.6253 4.4437C10.977 4.18713 11.0905 3.72549 10.9215 3.34297C13.3592 4.09552 15.1305 6.36664 15.1305 9.05149C15.1305 11.1341 14.0655 12.9684 12.4461 14.0388C12.0273 14.3156 11.9123 14.8794 12.189 15.2981C12.4658 15.7168 13.0296 15.8319 13.4483 15.5551C15.5552 14.1625 16.9481 11.7699 16.9481 9.05149C16.9481 5.45265 14.508 2.42373 11.192 1.52894C11.484 1.21664 11.5228 0.731309 11.2615 0.373188C10.9657 -0.0322715 10.3972 -0.121128 9.99169 0.174721L8.37249 1.3562C7.96703 1.65204 7.87818 2.22057 8.17403 2.62603L9.3555 4.24523ZM5.40053 3.96125C5.81925 3.68449 5.93433 3.12069 5.65756 2.70197C5.3808 2.28325 4.817 2.16817 4.39828 2.44494C2.29142 3.83752 0.898438 6.23015 0.898438 8.94856C0.898438 12.5473 3.33847 15.5762 6.65439 16.4711C6.36236 16.7834 6.32354 17.2687 6.58485 17.6268C6.8807 18.0323 7.44923 18.1212 7.85469 17.8253L9.47389 16.6438C9.87935 16.348 9.9682 15.7795 9.67235 15.374L8.49088 13.7548C8.19503 13.3493 7.62651 13.2605 7.22105 13.5563C6.86944 13.8129 6.75592 14.2745 6.9249 14.657C4.48726 13.9044 2.71605 11.6333 2.71605 8.94856C2.71605 6.86593 3.78112 5.03164 5.40053 3.96125Z" fill="white"/>
</svg>
