<svg width="15" height="14" viewBox="0 0 15 14" fill="none" xmlns="http://www.w3.org/2000/svg">
<path d="M5.64658 2.20581L6.31977 1.23839C6.50671 0.969737 6.8133 0.80957 7.14059 0.80957H7.86082C8.1869 0.80957 8.4925 0.968555 8.67967 1.23557L9.34455 2.18406C9.45282 2.33732 9.5984 2.45754 9.76433 2.53571C9.92922 2.6129 10.1145 2.64879 10.3028 2.63549L11.4824 2.54909C11.8063 2.52536 12.1216 2.66044 12.3279 2.91133L12.7605 3.43755C12.9746 3.69793 13.0431 4.04865 12.9427 4.37045L12.6037 5.45709C12.5492 5.63411 12.5465 5.817 12.5896 5.9896M5.64658 2.20581C5.43187 2.51214 5.07496 2.66225 4.69613 2.63549M5.64658 2.20581C5.43082 2.51141 5.07496 2.66349 4.69613 2.63549M4.69613 2.63549L3.49849 2.5603C3.17765 2.54016 2.86668 2.67549 2.66276 2.92402L2.21263 3.47262C1.99643 3.73611 1.92933 4.09158 2.03459 4.41576L2.37623 5.46793M2.37623 5.46793C2.43128 5.64642 2.43833 5.83764 2.39893 6.01824M2.37623 5.46793C2.43207 5.6461 2.43885 5.83694 2.39867 6.02009M2.39893 6.01824C2.35901 6.1967 2.27344 6.36521 2.14638 6.50166M2.39893 6.01824L2.39867 6.02009M2.14638 6.50166L1.36575 7.34126C1.13735 7.58691 1.04732 7.9307 1.126 8.25676L1.27938 8.89238C1.35781 9.21737 1.59345 9.48167 1.90736 9.59672L2.97995 9.98984C3.15632 10.0581 3.30868 10.169 3.424 10.3088M2.14638 6.50166C2.27422 6.36633 2.35901 6.19836 2.39867 6.02009M3.424 10.3088C3.53853 10.4489 3.61654 10.6181 3.64681 10.8012M3.424 10.3088C3.53958 10.4489 3.61785 10.6176 3.64681 10.8012M3.424 10.3088L3.42217 10.3068C3.41461 10.2976 3.40652 10.288 3.39869 10.2791M3.64681 10.8012L3.82958 11.924C3.88285 12.2511 4.0948 12.5307 4.39548 12.6703L5.04356 12.9712C5.33462 13.1063 5.67286 13.0936 5.95292 12.9369L6.96777 12.3691M6.96777 12.3691C7.13187 12.2769 7.31502 12.2307 7.49817 12.2305M6.96777 12.3691C7.03273 12.3321 7.10083 12.3026 7.17075 12.2805C7.27693 12.2468 7.38755 12.2302 7.49817 12.2305M7.49817 12.2305C7.5934 12.2307 7.68863 12.2433 7.78151 12.2681C7.86787 12.2913 7.95188 12.325 8.03145 12.3691M7.49817 12.2305C7.68211 12.2302 7.8663 12.2764 8.03145 12.3691M8.03145 12.3691L9.10115 12.9482C9.38243 13.1004 9.71957 13.109 10.0082 12.9711L10.6536 12.6629C10.9532 12.5198 11.1623 12.2373 11.2116 11.9089L11.3743 10.8245M11.3743 10.8245C11.4033 10.6403 11.4803 10.4699 11.5945 10.3285M11.3743 10.8245C11.4022 10.6399 11.4797 10.4698 11.5945 10.3285M11.5945 10.3285C11.708 10.1886 11.8586 10.0771 12.0339 10.0082M11.5945 10.3285C11.7078 10.1881 11.8578 10.0763 12.0339 10.0082M12.0339 10.0082L13.1234 9.58119C13.4314 9.46049 13.6598 9.1953 13.7334 8.87282L13.8826 8.21968C13.9561 7.89806 13.8662 7.5609 13.6424 7.31854L12.8531 6.46393M12.8531 6.46393C12.7237 6.327 12.6334 6.16343 12.5896 5.9896M12.8531 6.46393C12.7923 6.39998 12.7401 6.33006 12.6976 6.25593C12.6491 6.17176 12.6128 6.08216 12.5896 5.9896M9.59605 7.00662C9.59605 8.16111 8.63908 9.09699 7.45878 9.09699C6.27848 9.09699 5.32151 8.16111 5.32151 7.00662C5.32151 5.85212 6.27848 4.91625 7.45878 4.91625C8.63908 4.91625 9.59605 5.85212 9.59605 7.00662Z" stroke="#7F8082"/>
</svg>
