<svg width="21" height="16" viewBox="0 0 21 16" fill="none" xmlns="http://www.w3.org/2000/svg">
<path d="M7.25 8L14.75 8" stroke="#262631"/>
<path d="M6.32644 8.35251C6.53668 8.15783 6.56096 7.84217 6.38067 7.64749L3.44274 4.47488C3.26245 4.28019 2.94587 4.28019 2.73563 4.47488C2.52539 4.66957 2.50111 4.98522 2.6814 5.1799L5.29289 8L2.24754 10.8201C2.0373 11.0148 2.01302 11.3304 2.1933 11.5251C2.37359 11.7198 2.69017 11.7198 2.90041 11.5251L6.32644 8.35251ZM0.961652 8.49853L5.96165 8.49853L6.03835 7.50147L1.03835 7.50147L0.961652 8.49853Z" fill="#262631"/>
<path d="M15.6464 7.64645C15.4512 7.84171 15.4512 8.15829 15.6464 8.35355L18.8284 11.5355C19.0237 11.7308 19.3403 11.7308 19.5355 11.5355C19.7308 11.3403 19.7308 11.0237 19.5355 10.8284L16.7071 8L19.5355 5.17157C19.7308 4.97631 19.7308 4.65973 19.5355 4.46447C19.3403 4.2692 19.0237 4.2692 18.8284 4.46447L15.6464 7.64645ZM16 8.5H21V7.5H16V8.5Z" fill="#262631"/>
</svg>
