<svg width="24" height="25" viewBox="0 0 24 25" fill="none" xmlns="http://www.w3.org/2000/svg">
<path d="M15.375 7.12819C15.1525 7.12819 14.935 7.06052 14.75 6.93373C14.565 6.80694 14.4208 6.62674 14.3356 6.4159C14.2505 6.20506 14.2282 5.97306 14.2716 5.74924C14.315 5.52541 14.4222 5.31982 14.5795 5.15845C14.7368 4.99708 14.9373 4.88719 15.1555 4.84267C15.3738 4.79815 15.6 4.821 15.8055 4.90833C16.0111 4.99566 16.1868 5.14355 16.3104 5.3333C16.434 5.52305 16.5 5.74613 16.5 5.97434C16.5 6.28036 16.3815 6.57385 16.1705 6.79024C15.9595 7.00662 15.6734 7.12819 15.375 7.12819ZM16.5 12.5128C16.5 12.2846 16.434 12.0615 16.3104 11.8718C16.1868 11.682 16.0111 11.5341 15.8055 11.4468C15.6 11.3595 15.3738 11.3366 15.1555 11.3811C14.9373 11.4257 14.7368 11.5355 14.5795 11.6969C14.4222 11.8583 14.315 12.0639 14.2716 12.2877C14.2282 12.5115 14.2505 12.7435 14.3356 12.9544C14.4208 13.1652 14.565 13.3454 14.75 13.4722C14.935 13.599 15.1525 13.6667 15.375 13.6667C15.6734 13.6667 15.9595 13.5451 16.1705 13.3287C16.3815 13.1123 16.5 12.8188 16.5 12.5128ZM14.25 19.0513C14.25 19.2795 14.316 19.5026 14.4396 19.6923C14.5632 19.8821 14.7389 20.0299 14.9445 20.1173C15.15 20.2046 15.3762 20.2275 15.5945 20.1829C15.8127 20.1384 16.0132 20.0285 16.1705 19.8672C16.3278 19.7058 16.435 19.5002 16.4784 19.2764C16.5218 19.0525 16.4995 18.8205 16.4144 18.6097C16.3292 18.3989 16.185 18.2187 16 18.0919C15.815 17.9651 15.5975 17.8974 15.375 17.8974C15.0766 17.8974 14.7905 18.019 14.5795 18.2354C14.3685 18.4518 14.25 18.7452 14.25 19.0513ZM9.75 5.97434C9.75 5.74613 9.68402 5.52305 9.5604 5.3333C9.43679 5.14355 9.26108 4.99566 9.05552 4.90833C8.84995 4.821 8.62375 4.79815 8.40552 4.84267C8.18729 4.88719 7.98684 4.99708 7.8295 5.15845C7.67217 5.31982 7.56502 5.52541 7.52162 5.74924C7.47821 5.97306 7.50049 6.20506 7.58564 6.4159C7.67078 6.62674 7.81498 6.80694 7.99998 6.93373C8.18499 7.06052 8.4025 7.12819 8.625 7.12819C8.92337 7.12819 9.20952 7.00662 9.42049 6.79024C9.63147 6.57385 9.75 6.28036 9.75 5.97434ZM9.75 12.5128C9.75 12.2846 9.68402 12.0615 9.5604 11.8718C9.43679 11.682 9.26108 11.5341 9.05552 11.4468C8.84995 11.3595 8.62375 11.3366 8.40552 11.3811C8.18729 11.4257 7.98684 11.5355 7.8295 11.6969C7.67217 11.8583 7.56502 12.0639 7.52162 12.2877C7.47821 12.5115 7.50049 12.7435 7.58564 12.9544C7.67078 13.1652 7.81498 13.3454 7.99998 13.4722C8.18499 13.599 8.4025 13.6667 8.625 13.6667C8.92337 13.6667 9.20952 13.5451 9.42049 13.3287C9.63147 13.1123 9.75 12.8188 9.75 12.5128ZM9.75 19.0513C9.75 18.8231 9.68402 18.6 9.5604 18.4102C9.43679 18.2205 9.26108 18.0726 9.05552 17.9853C8.84995 17.8979 8.62375 17.8751 8.40552 17.9196C8.18729 17.9641 7.98684 18.074 7.8295 18.2354C7.67217 18.3967 7.56502 18.6023 7.52162 18.8262C7.47821 19.05 7.50049 19.282 7.58564 19.4928C7.67078 19.7037 7.81498 19.8839 7.99998 20.0107C8.18499 20.1374 8.4025 20.2051 8.625 20.2051C8.92337 20.2051 9.20952 20.0835 9.42049 19.8672C9.63147 19.6508 9.75 19.3573 9.75 19.0513Z" fill="#1D2B49"/>
</svg>
