<svg width="13" height="14" viewBox="0 0 13 14" fill="none" xmlns="http://www.w3.org/2000/svg">
<g clip-path="url(#clip0_12853_845)">
<path d="M12.4414 4.29065C12.1185 3.51575 11.6504 2.83771 11.053 2.24039C10.4557 1.64307 9.77767 1.1749 9.00277 0.85202C8.21173 0.529144 7.37225 0.351562 6.50048 0.351562C5.62872 0.351562 4.78924 0.529144 3.98205 0.85202C3.20715 1.1749 2.52911 1.64307 1.93179 2.24039C1.33447 2.83771 0.882446 3.53189 0.543426 4.29065C0.220551 5.09784 0.0429688 5.93731 0.0429688 6.80908C0.0429688 7.68084 0.220551 8.52032 0.543426 9.32751C0.866302 10.1024 1.33447 10.7805 1.93179 11.3778C2.52911 11.9751 3.20715 12.4433 3.98205 12.7661C4.78924 13.089 5.62872 13.2666 6.50048 13.2666C7.37225 13.2666 8.21173 13.089 9.01892 12.7661C9.79382 12.4433 10.4719 11.9751 11.0692 11.3778C11.6665 10.7805 12.1185 10.0863 12.4575 9.32751C12.7804 8.52032 12.958 7.68084 12.958 6.80908C12.958 5.93731 12.7804 5.09784 12.4414 4.29065ZM10.5203 10.845C9.4548 11.9105 8.018 12.5078 6.50048 12.5078C4.98297 12.5078 3.54617 11.9105 2.48068 10.845C1.39905 9.76339 0.817871 8.32659 0.817871 6.80908C0.817871 5.29156 1.41519 3.85476 2.48068 2.77313C3.54617 1.70764 4.98297 1.11032 6.50048 1.11032C8.018 1.11032 9.4548 1.70764 10.5203 2.77313C11.6019 3.85476 12.1831 5.27542 12.1831 6.80908C12.1831 8.34274 11.6019 9.76339 10.5203 10.845Z" fill="#262631"/>
<path d="M6.50015 9.3273C6.33872 9.3273 4.98264 9.29502 3.98172 8.22953C3.85257 8.08423 3.62656 8.06809 3.48126 8.18109C3.30368 8.31024 3.2714 8.56855 3.43283 8.74613C3.91715 9.26273 4.51447 9.65018 5.22479 9.87619C5.8544 10.0861 6.371 10.1022 6.5163 10.1022C7.37192 10.1022 8.19525 9.82776 8.90558 9.3273C9.19617 9.13358 9.42218 8.92371 9.58362 8.74613C9.74505 8.58469 9.71277 8.32639 9.53519 8.18109C9.38989 8.06809 9.16388 8.08423 9.03473 8.22953C8.63113 8.60083 7.75937 9.3273 6.50015 9.3273Z" fill="#262631"/>
<path d="M4.53061 6.25995C5.05665 6.25995 5.48309 5.83351 5.48309 5.30746C5.48309 4.78142 5.05665 4.35498 4.53061 4.35498C4.00457 4.35498 3.57812 4.78142 3.57812 5.30746C3.57812 5.83351 4.00457 6.25995 4.53061 6.25995Z" fill="#262631"/>
<path d="M8.47006 6.25995C8.9961 6.25995 9.42255 5.83351 9.42255 5.30746C9.42255 4.78142 8.9961 4.35498 8.47006 4.35498C7.94402 4.35498 7.51758 4.78142 7.51758 5.30746C7.51758 5.83351 7.94402 6.25995 8.47006 6.25995Z" fill="#262631"/>
</g>
<defs>
<clipPath id="clip0_12853_845">
<rect width="13" height="13.7647" fill="white" transform="translate(0 0.117676)"/>
</clipPath>
</defs>
</svg>
