<svg width="50" height="38" viewBox="0 0 40 38" fill="none" xmlns="http://www.w3.org/2000/svg">
<path fill-rule="evenodd" clip-rule="evenodd" d="M21.5 9.64476C23.6074 11.7379 25.8476 15.6881 27.1926 23.1109C28.2493 28.9424 28.816 33.5059 30.8901 35.773C35.0438 40.3133 41.1266 37.5557 40.4866 30.7137C39.7323 22.6509 32.7357 11.4107 29.7755 6.96896C26.5 7.00021 23 8.50045 21.5 9.64476Z" fill="white"/>
<path fill-rule="evenodd" clip-rule="evenodd" d="M0 38C0 38 9.08747 20.0151 15.3832 12.526C21.6789 5.03693 28.3734 4.98125 28.3734 4.98125C28.3734 4.98125 20.9952 -4.03905 13.617 2.1972C9.80319 5.4207 4.35415 12.9261 0.997058 25.4996C0.0243337 29.1429 0 38 0 38Z" fill="white"/>
</svg>
